<?xml version="1.0" encoding="UTF-8" standalone="no"?>
<!DOCTYPE svg PUBLIC "-//W3C//DTD SVG 1.1//EN"
 "http://www.w3.org/Graphics/SVG/1.1/DTD/svg11.dtd">
<!-- Generated by graphviz version 2.47.0 (20210316.0004)
 -->
<!-- Title: dependencies Pages: 1 -->
<svg width="596pt" height="222pt"
 viewBox="0.00 0.00 596.00 222.00" xmlns="http://www.w3.org/2000/svg" xmlns:xlink="http://www.w3.org/1999/xlink">
<g id="graph0" class="graph" transform="scale(1 1) rotate(0) translate(4 218)">
<title>dependencies</title>
<polygon fill="white" stroke="transparent" points="-4,4 -4,-218 592,-218 592,4 -4,4"/>
<text text-anchor="start" x="273.01" y="-42.4" font-family="Times-12" font-weight="bold" font-size="14.00">Legend</text>
<polygon fill="#ffffb3" stroke="transparent" points="60,-10 60,-30 80,-30 80,-10 60,-10"/>
<text text-anchor="start" x="83.63" y="-15.4" font-family="Times-12" font-size="14.00"> &#160;Declarations</text>
<polygon fill="#8dd3c7" stroke="transparent" points="173,-10 173,-30 193,-30 193,-10 173,-10"/>
<text text-anchor="start" x="196.73" y="-15.4" font-family="Times-12" font-size="14.00"> &#160;Module</text>
<polygon fill="#80b1d3" stroke="transparent" points="259,-10 259,-30 279,-30 279,-10 259,-10"/>
<text text-anchor="start" x="282.78" y="-15.4" font-family="Times-12" font-size="14.00"> &#160;Bootstrap</text>
<polygon fill="#fdb462" stroke="transparent" points="356,-10 356,-30 376,-30 376,-10 356,-10"/>
<text text-anchor="start" x="379.67" y="-15.4" font-family="Times-12" font-size="14.00"> &#160;Providers</text>
<polygon fill="#fb8072" stroke="transparent" points="452,-10 452,-30 472,-30 472,-10 452,-10"/>
<text text-anchor="start" x="475.73" y="-15.4" font-family="Times-12" font-size="14.00"> &#160;Exports</text>
<g id="clust1" class="cluster">
<title>cluster_AppModule</title>
<polygon fill="none" stroke="black" stroke-dasharray="1,5" points="8,-70 8,-198 298,-198 298,-70 8,-70"/>
</g>
<g id="clust3" class="cluster">
<title>cluster_AppModule_imports</title>
<polygon fill="none" stroke="black" points="182,-78 182,-130 290,-130 290,-78 182,-78"/>
</g>
<g id="clust6" class="cluster">
<title>cluster_AppModule_providers</title>
<polygon fill="none" stroke="black" points="16,-78 16,-130 174,-130 174,-78 16,-78"/>
</g>
<g id="clust7" class="cluster">
<title>cluster_RedisModule</title>
<polygon fill="none" stroke="black" stroke-dasharray="1,5" points="306,-138 306,-206 580,-206 580,-138 306,-138"/>
</g>
<g id="clust10" class="cluster">
<title>cluster_RedisModule_exports</title>
<polygon fill="none" stroke="black" points="462,-146 462,-198 572,-198 572,-146 462,-146"/>
</g>
<g id="clust12" class="cluster">
<title>cluster_RedisModule_providers</title>
<polygon fill="none" stroke="black" points="314,-146 314,-198 454,-198 454,-146 314,-146"/>
</g>
<!-- RedisModule -->
<g id="node1" class="node">
<title>RedisModule</title>
<polygon fill="#8dd3c7" stroke="black" points="281.94,-122 278.94,-126 257.94,-126 254.94,-122 190.06,-122 190.06,-86 281.94,-86 281.94,-122"/>
<text text-anchor="middle" x="236" y="-99.8" font-family="Times,serif" font-size="14.00">RedisModule</text>
</g>
<!-- AppModule -->
<g id="node2" class="node">
<title>AppModule</title>
<polygon fill="#8dd3c7" stroke="black" points="206.66,-190 203.66,-194 182.66,-194 179.66,-190 123.34,-190 123.34,-154 206.66,-154 206.66,-190"/>
<text text-anchor="middle" x="165" y="-167.8" font-family="Times,serif" font-size="14.00">AppModule</text>
</g>
<!-- RedisModule&#45;&gt;AppModule -->
<g id="edge1" class="edge">
<title>RedisModule&#45;&gt;AppModule</title>
<path fill="none" stroke="black" d="M198.56,-122.22C198.56,-122.22 198.56,-143.73 198.56,-143.73"/>
<polygon fill="black" stroke="black" points="195.06,-143.73 198.56,-153.73 202.06,-143.73 195.06,-143.73"/>
</g>
<!-- RedisService  -->
<g id="node4" class="node">
<title>RedisService </title>
<polygon fill="#fb8072" stroke="black" points="563.86,-190 470.14,-190 470.14,-154 563.86,-154 563.86,-190"/>
<text text-anchor="middle" x="517" y="-167.8" font-family="Times,serif" font-size="14.00">RedisService </text>
</g>
<!-- RedisModule&#45;&gt;RedisService  -->
<g id="edge3" class="edge">
<title>RedisModule&#45;&gt;RedisService </title>
<path fill="none" stroke="black" stroke-dasharray="5,2" d="M281.77,-104C361.4,-104 517,-104 517,-104 517,-104 517,-143.78 517,-143.78"/>
<polygon fill="black" stroke="black" points="513.5,-143.78 517,-153.78 520.5,-143.78 513.5,-143.78"/>
</g>
<!-- RoutingService -->
<g id="node3" class="node">
<title>RoutingService</title>
<ellipse fill="#fdb462" stroke="black" cx="95" cy="-104" rx="71.23" ry="18"/>
<text text-anchor="middle" x="95" y="-99.8" font-family="Times,serif" font-size="14.00">RoutingService</text>
</g>
<!-- RoutingService&#45;&gt;AppModule -->
<g id="edge2" class="edge">
<title>RoutingService&#45;&gt;AppModule</title>
<path fill="none" stroke="black" d="M144.64,-117.11C144.64,-117.11 144.64,-143.79 144.64,-143.79"/>
<polygon fill="black" stroke="black" points="141.14,-143.79 144.64,-153.79 148.14,-143.79 141.14,-143.79"/>
</g>
<!-- RedisService -->
<g id="node5" class="node">
<title>RedisService</title>
<ellipse fill="#fdb462" stroke="black" cx="384" cy="-172" rx="61.97" ry="18"/>
<text text-anchor="middle" x="384" y="-167.8" font-family="Times,serif" font-size="14.00">RedisService</text>
</g>
<!-- RedisService&#45;&gt;RedisModule -->
<g id="edge4" class="edge">
<title>RedisService&#45;&gt;RedisModule</title>
<path fill="none" stroke="black" d="M321.9,-172C284.58,-172 244.27,-172 244.27,-172 244.27,-172 244.27,-132.22 244.27,-132.22"/>
<polygon fill="black" stroke="black" points="247.77,-132.22 244.27,-122.22 240.77,-132.22 247.77,-132.22"/>
</g>
</g>
</svg>
